HIERARCHY
ROOT Hips
{
	OFFSET 46.218102 -5.635053 82.279800
	CHANNELS 6 Xposition Yposition Zposition Xrotation Yrotation Zrotation
	JOINT spine
	{
		OFFSET 0.000000 -0.359108 6.244789
		CHANNELS 3 Xrotation Yrotation Zrotation
		JOINT spine1
		{
			OFFSET 0.000000 -0.000001 9.069412
			CHANNELS 3 Xrotation Yrotation Zrotation
			JOINT spine2
			{
				OFFSET 0.000000 -0.000001 8.690140
				CHANNELS 3 Xrotation Yrotation Zrotation
				JOINT Neck
				{
					OFFSET 0.000000 -1.063724 22.311195
					CHANNELS 3 Xrotation Yrotation Zrotation
					JOINT Head
					{
						OFFSET 0.000000 -0.000001 6.740814
						CHANNELS 3 Xrotation Yrotation Zrotation
						End Site
						{
							OFFSET 0.000000 5.380967 16.316498
						}
					}
				}
				JOINT RightShoulder
				{
					OFFSET -3.659161 0.509512 9.384682
					CHANNELS 3 Xrotation Yrotation Zrotation
					JOINT RightArm
					{
						OFFSET 0.000000 -0.000002 12.308899
						CHANNELS 3 Xrotation Yrotation Zrotation
						JOINT RightArmRoll
						{
							OFFSET 0.000000 -0.000001 6.213745
							CHANNELS 3 Xrotation Yrotation Zrotation
							JOINT RightForeArm
							{
								OFFSET 0.000000 -0.000003 18.098495
								CHANNELS 3 Xrotation Yrotation Zrotation
								JOINT RightForeArmRoll
								{
									OFFSET 0.000000 -0.000001 6.972794
									CHANNELS 3 Xrotation Yrotation Zrotation
									JOINT RightHand
									{
										OFFSET 0.000000 -0.000002 13.992905
										CHANNELS 3 Xrotation Yrotation Zrotation
										End Site
										{
											OFFSET 0.000000 0.000000 0.100006
										}
									}
								}
							}
						}
					}
				}
				JOINT LeftShoulder
				{
					OFFSET 3.659161 0.509512 9.384682
					CHANNELS 3 Xrotation Yrotation Zrotation
					JOINT LeftArm
					{
						OFFSET 0.000000 -0.000002 12.308899
						CHANNELS 3 Xrotation Yrotation Zrotation
						JOINT LeftArmRoll
						{
							OFFSET 0.000000 -0.000001 6.213745
							CHANNELS 3 Xrotation Yrotation Zrotation
							JOINT LeftForeArm
							{
								OFFSET 0.000000 -0.000003 18.098495
								CHANNELS 3 Xrotation Yrotation Zrotation
								JOINT LeftForeArmRoll
								{
									OFFSET 0.000000 -0.000001 6.972794
									CHANNELS 3 Xrotation Yrotation Zrotation
									JOINT LeftHand
									{
										OFFSET 0.000000 -0.000002 13.992905
										CHANNELS 3 Xrotation Yrotation Zrotation
										End Site
										{
											OFFSET 0.000000 0.000000 0.100006
										}
									}
								}
							}
						}
					}
				}
			}
		}
	}
	JOINT RightUpLeg
	{
		OFFSET -5.535149 0.851454 -1.014999
		CHANNELS 3 Xrotation Yrotation Zrotation
		JOINT RightUpLegRoll
		{
			OFFSET 0.000000 -0.000002 16.407501
			CHANNELS 3 Xrotation Yrotation Zrotation
			JOINT RightLeg
			{
				OFFSET 0.000000 0.000003 -20.318100
				CHANNELS 3 Xrotation Yrotation Zrotation
				JOINT RightLegRoll
				{
					OFFSET 0.000000 -0.000003 20.384598
					CHANNELS 3 Xrotation Yrotation Zrotation
					JOINT RightFoot
					{
						OFFSET 0.000000 -0.000003 16.966797
						CHANNELS 3 Xrotation Yrotation Zrotation
						JOINT RightToeBase
						{
							OFFSET 0.000000 -0.000002 14.183395
							CHANNELS 3 Xrotation Yrotation Zrotation
							End Site
							{
								OFFSET 0.006012 0.791745 6.868896
							}
						}
					}
				}
			}
		}
	}
	JOINT LeftUpLeg
	{
		OFFSET 5.535149 0.851454 -1.014999
		CHANNELS 3 Xrotation Yrotation Zrotation
		JOINT LeftUpLegRoll
		{
			OFFSET 0.000000 -0.000002 16.407600
			CHANNELS 3 Xrotation Yrotation Zrotation
			JOINT LeftLeg
			{
				OFFSET 0.000000 -0.000003 20.318100
				CHANNELS 3 Xrotation Yrotation Zrotation
				JOINT LeftLegRoll
				{
					OFFSET 0.000000 -0.000003 20.573097
					CHANNELS 3 Xrotation Yrotation Zrotation
					JOINT LeftFoot
					{
						OFFSET 0.000000 -0.000003 16.778305
						CHANNELS 3 Xrotation Yrotation Zrotation
						JOINT LeftToeBase
						{
							OFFSET 0.000000 -0.000002 14.183395
							CHANNELS 3 Xrotation Yrotation Zrotation
							End Site
							{
								OFFSET -0.026943 0.791745 6.868896
							}
						}
					}
				}
			}
		}
	}
}
MOTION
Frames: 11
Frame Time: 0.041667
42.394798 -5.500336 83.724800 4.772638 1.249044 5.473094 -1.037792 -0.112606 -0.087642 1.913734 -0.218483 -0.184136 3.558809 -0.226921 -0.181436 17.840077 -3.201116 12.230687 4.981962 15.424408 10.501453 -3.061040 -67.006799 -4.373538 -41.851325 -117.972762 -66.464468 -0.000001 0.000000 -0.000000 47.836797 -19.775534 7.987813 0.000013 0.000009 -2.999998 -5.000164 -7.999147 0.000042 -10.400263 60.576517 12.332648 -35.299306 126.025583 57.401907 -0.000002 -0.000007 0.000000 52.605905 16.163508 -5.912943 0.000001 -0.000015 2.999990 -5.000000 7.998782 -0.000055 -15.518234 -177.188207 -0.280988 -179.999991 0.000005 -0.814003 166.170921 -2.410145 -1.193089 -0.000003 0.000003 0.112341 68.167200 6.400579 3.417096 25.456892 -7.354397 0.012516 -12.505181 171.278564 -0.696382 -0.000005 -0.000003 -0.591561 -10.463328 -0.673852 1.273828 -0.000002 -0.000003 0.354285 66.676573 -4.490233 -8.105009 25.465105 7.355084 -0.005885 
42.384399 -5.506598 83.722206 4.768227 1.248344 5.485230 -1.038722 -0.113601 -0.087053 1.913524 -0.220909 -0.182394 3.558600 -0.228875 -0.179671 17.850892 -3.167167 12.262839 4.969824 15.418903 10.533966 -3.044165 -66.995912 -4.353446 -41.859924 -117.979592 -66.510531 -0.000001 0.000001 0.000003 47.869330 -19.773722 7.993005 0.000013 0.000008 -3.000000 -5.000167 -7.999145 0.000043 -10.405861 60.593320 12.340146 -35.285256 126.055512 57.409475 -0.000002 -0.000007 0.000002 52.602777 16.176019 -5.918239 0.000000 -0.000014 2.999989 -5.000005 7.998784 -0.000053 -15.522267 -177.200789 -0.283320 -179.999991 0.000005 -0.814003 166.158176 -2.412918 -1.193343 -0.000003 0.000003 0.112341 68.163013 6.399814 3.420290 25.456894 -7.354398 0.012515 -12.515488 171.267185 -0.700119 -0.000005 -0.000003 -0.591508 -10.480830 -0.673361 1.274676 -0.000002 -0.000003 0.354311 66.678055 -4.487753 -8.113439 25.465105 7.355086 -0.005886 
42.378101 -5.494207 83.717606 4.763925 1.247834 5.497285 -1.039692 -0.114620 -0.086440 1.913325 -0.223398 -0.180585 3.558399 -0.230875 -0.177838 17.861506 -3.133169 12.294051 4.958179 15.413579 10.565529 -3.026377 -66.984929 -4.332307 -41.869620 -117.985617 -66.558459 -0.000000 0.000000 -0.000002 47.902422 -19.771939 7.998406 0.000012 0.000007 -2.999996 -5.000165 -7.999144 0.000043 -10.411790 60.609801 12.348025 -35.271087 126.085415 57.416339 -0.000001 -0.000007 -0.000001 52.600011 16.187997 -5.923176 0.000000 -0.000015 2.999989 -5.000002 7.998784 -0.000054 -15.526405 -177.213356 -0.285587 -179.999991 0.000005 -0.814003 166.145636 -2.415706 -1.193594 -0.000002 0.000003 0.112341 68.158608 6.398987 3.423587 25.456892 -7.354397 0.012515 -12.526336 171.254836 -0.703644 -0.000005 -0.000004 -0.591428 -10.498630 -0.672915 1.275573 -0.000002 -0.000002 0.354320 66.679606 -4.485065 -8.122517 25.465107 7.355084 -0.005885 
42.361000 -5.498105 83.715408 4.759681 1.247473 5.509300 -1.040673 -0.115656 -0.085809 1.913136 -0.225931 -0.178729 3.558211 -0.232908 -0.175955 17.871929 -3.099133 12.324724 4.946852 15.408246 10.596402 -3.007981 -66.973871 -4.310469 -41.878048 -117.992379 -66.605471 0.000000 -0.000001 0.000003 47.935948 -19.770051 8.003825 0.000015 0.000008 -2.999999 -5.000165 -7.999144 0.000041 -10.418037 60.626152 12.356259 -35.255374 126.116943 57.420676 -0.000002 -0.000007 0.000000 52.597521 16.199537 -5.927803 -0.000002 -0.000015 2.999990 -4.999999 7.998788 -0.000053 -15.530839 -177.225951 -0.287811 -179.999991 0.000006 -0.814003 166.133000 -2.418492 -1.194845 -0.000003 0.000004 0.112341 68.154100 6.398188 3.426894 25.456889 -7.354397 0.012516 -12.537355 171.243484 -0.707416 -0.000004 -0.000003 -0.591332 -10.516530 -0.672503 1.276491 -0.000002 -0.000003 0.354317 66.681033 -4.482233 -8.131972 25.465104 7.355086 -0.005885 
42.346600 -5.520814 83.715408 4.755490 1.247191 5.521275 -1.041683 -0.116701 -0.085170 1.912955 -0.228491 -0.176844 3.558031 -0.234959 -0.174046 17.882251 -3.065062 12.354966 4.935742 15.403007 10.627014 -2.989230 -66.962717 -4.288228 -41.887737 -117.998403 -66.654191 -0.000000 0.000001 0.000001 47.969815 -19.768183 8.009409 0.000017 0.000004 -3.000000 -5.000162 -7.999145 0.000041 -10.424423 60.642401 12.364649 -35.240484 126.147665 57.425819 -0.000002 -0.000008 0.000000 52.595090 16.210920 -5.932395 -0.000000 -0.000015 2.999990 -4.999998 7.998788 -0.000054 -15.535265 -177.239502 -0.289737 -179.999991 0.000005 -0.814003 166.120446 -2.422234 -1.195321 -0.000003 0.000003 0.112341 68.149476 6.397341 3.430395 25.456887 -7.354397 0.012516 -12.548580 171.232118 -0.711199 -0.000005 -0.000004 -0.591224 -10.534531 -0.672107 1.277436 -0.000002 -0.000003 0.354309 66.682338 -4.479337 -8.141721 25.465104 7.355085 -0.005885 
42.331501 -5.514825 83.710907 4.751308 1.246930 5.533239 -1.042680 -0.117749 -0.084528 1.912765 -0.231056 -0.174953 3.557841 -0.237015 -0.172131 17.892483 -3.030978 12.385186 4.924673 15.397772 10.657408 -2.970406 -66.951454 -4.265892 -41.897398 -118.004427 -66.702897 -0.000001 0.000001 0.000001 48.003580 -19.766334 8.014856 0.000012 0.000008 -2.999997 -5.000164 -7.999145 0.000042 -10.430842 60.658541 12.373076 -35.225628 126.178374 57.430901 -0.000002 -0.000007 0.000000 52.592747 16.222273 -5.937012 -0.000001 -0.000015 2.999987 -4.999995 7.998785 -0.000055 -15.539701 -177.252097 -0.291922 -179.999991 0.000005 -0.814002 166.107892 -2.425990 -1.195813 -0.000003 0.000003 0.112341 68.144852 6.396494 3.433899 25.456889 -7.354397 0.012516 -12.559932 171.219810 -0.714747 -0.000004 -0.000004 -0.591114 -10.552530 -0.671716 1.278371 -0.000002 -0.000003 0.354299 66.683745 -4.476383 -8.151457 25.465102 7.355085 -0.005885 
42.326900 -5.476135 83.702797 4.747109 1.246619 5.545227 -1.043682 -0.118791 -0.083891 1.912577 -0.233609 -0.173076 3.557653 -0.239061 -0.170228 17.902821 -2.996888 12.415492 4.913507 15.392434 10.688037 -2.951774 -66.940300 -4.243781 -41.906913 -118.010383 -66.751370 -0.000000 -0.000000 0.000000 48.037345 -19.764472 8.020310 0.000016 0.000004 -3.000002 -5.000165 -7.999142 0.000043 -10.437199 60.674790 12.381433 -35.210803 126.209110 57.436188 -0.000002 -0.000007 -0.000000 52.590326 16.233662 -5.941606 -0.000000 -0.000016 2.999989 -4.999999 7.998779 -0.000054 -15.544127 -177.265648 -0.293851 -179.999991 0.000005 -0.814004 166.095256 -2.428775 -1.196073 -0.000003 0.000003 0.112341 68.140221 6.395644 3.437404 25.456892 -7.354398 0.012516 -12.571091 171.207462 -0.718306 -0.000005 -0.000004 -0.591009 -10.570531 -0.671316 1.279307 -0.000002 -0.000003 0.354291 66.685145 -4.473471 -8.161095 25.465105 7.355085 -0.005886 
42.313000 -5.488325 83.699799 4.742853 1.246218 5.557241 -1.044660 -0.119822 -0.083267 1.912387 -0.236129 -0.171231 3.557462 -0.241086 -0.168360 17.913163 -2.962801 12.446292 4.902104 15.387103 10.719126 -2.933620 -66.929222 -4.222210 -41.915150 -118.017076 -66.798103 -0.000001 0.000000 -0.000001 48.070779 -19.762623 8.025783 0.000012 0.000006 -2.999998 -5.000169 -7.999146 0.000040 -10.443376 60.691149 12.389577 -35.196016 126.239818 57.441829 -0.000002 -0.000007 0.000000 52.587792 16.245366 -5.946367 -0.000001 -0.000014 2.999990 -5.000001 7.998788 -0.000053 -15.548463 -177.278229 -0.296082 -179.999991 0.000005 -0.814003 166.082716 -2.431547 -1.196326 -0.000002 0.000004 0.112341 68.135822 6.394814 3.440699 25.456890 -7.354395 0.012516 -12.582114 171.196110 -0.722046 -0.000005 -0.000004 -0.590917 -10.588431 -0.670894 1.280219 -0.000002 -0.000002 0.354293 66.686579 -4.470682 -8.170464 25.465104 7.355084 -0.005886 
42.290100 -5.516755 83.699997 4.738522 1.245637 5.569325 -1.045611 -0.120834 -0.082660 1.912187 -0.238600 -0.169443 3.557263 -0.243072 -0.166547 17.923811 -2.928733 12.477698 4.890313 15.381581 10.750925 -2.916221 -66.918328 -4.201512 -41.923561 -118.023852 -66.844384 -0.000000 -0.000000 0.000002 48.103667 -19.760808 8.031035 0.000012 0.000005 -3.000000 -5.000164 -7.999146 0.000043 -10.449289 60.707835 12.397438 -35.181239 126.270554 57.448059 -0.000003 -0.000007 -0.000001 52.584868 16.257478 -5.951327 0.000000 -0.000014 2.999990 -5.000003 7.998784 -0.000055 -15.552604 -177.290810 -0.298356 -179.999991 0.000005 -0.814003 166.070066 -2.435299 -1.196829 -0.000003 0.000003 0.112341 68.131424 6.394022 3.444000 25.456892 -7.354398 0.012516 -12.592735 171.184744 -0.725767 -0.000005 -0.000003 -0.590846 -10.606033 -0.670441 1.281111 -0.000002 -0.000003 0.354308 66.688041 -4.468086 -8.179368 25.465102 7.355083 -0.005885 
42.278099 -5.505965 83.706810 4.734070 1.244828 5.581489 -1.046530 -0.121820 -0.082080 1.911967 -0.241000 -0.167729 3.557043 -0.245007 -0.164808 17.934770 -2.894691 12.510114 4.878004 15.376067 10.783873 -2.899822 -66.907529 -4.181964 -41.931812 -118.030559 -66.889935 -0.000000 -0.000000 0.000001 48.135898 -19.759053 8.036232 0.000015 0.000006 -2.999997 -5.000163 -7.999145 0.000040 -10.454772 60.724753 12.404791 -35.167298 126.300457 57.456016 -0.000000 -0.000007 0.000004 52.581621 16.270199 -5.956726 0.000001 -0.000013 2.999992 -5.000002 7.998787 -0.000055 -15.556543 -177.303378 -0.300705 -179.999991 0.000005 -0.814003 166.057417 -2.437116 -1.197849 -0.000003 0.000004 0.112341 68.127237 6.393249 3.447192 25.456892 -7.354399 0.012516 -12.602849 171.173379 -0.729470 -0.000005 -0.000003 -0.590804 -10.623434 -0.669939 1.281954 -0.000002 -0.000003 0.354340 66.689646 -4.465672 -8.187603 25.465104 7.355084 -0.005886 
42.261299 -5.524833 83.703590 4.729466 1.243741 5.593751 -1.047401 -0.122772 -0.081534 1.911738 -0.243311 -0.166110 3.556814 -0.246878 -0.163167 17.946033 -2.860677 12.543643 4.865027 15.370270 10.818015 -2.884716 -66.896997 -4.163896 -41.940053 -118.037253 -66.934461 -0.000001 -0.000000 0.000001 48.167249 -19.757371 8.041324 0.000015 0.000006 -3.000001 -5.000167 -7.999144 0.000043 -10.459734 60.742020 12.411562 -35.153399 126.330373 57.464997 -0.000002 -0.000008 -0.000001 52.577871 16.283647 -5.962395 0.000002 -0.000014 2.999990 -5.000003 7.998784 -0.000054 -15.560283 -177.315946 -0.303142 -179.999991 0.000005 -0.814004 166.044685 -2.439885 -1.198101 -0.000003 0.000004 0.112341 68.123289 6.392571 3.450089 25.456889 -7.354398 0.012516 -12.612425 171.162942 -0.733335 -0.000005 -0.000003 -0.590798 -10.640531 -0.669378 1.282732 -0.000003 -0.000003 0.354395 66.691395 -4.463519 -8.195189 25.465107 7.355083 -0.005886 
